<?xml version="1.0" encoding="UTF-8"?>
<svg xmlns="http://www.w3.org/2000/svg" xmlns:xlink="http://www.w3.org/1999/xlink" viewBox="0 0 1519.38 665.19">
  <defs>
    <style>
      .cls-1 {
        font-size: 39.75px;
      }

      .cls-1, .cls-2, .cls-3, .cls-4, .cls-5, .cls-6, .cls-7 {
        fill: #231f20;
      }

      .cls-1, .cls-2, .cls-4, .cls-5, .cls-6, .cls-7 {
        font-family: MyriadPro-Regular, 'Myriad Pro';
      }

      .cls-8 {
        letter-spacing: -.04em;
      }

      .cls-2 {
        font-size: 36.74px;
      }

      .cls-9 {
        stroke-linecap: square;
      }

      .cls-9, .cls-10, .cls-11, .cls-12, .cls-13, .cls-14, .cls-15, .cls-16, .cls-17, .cls-6 {
        stroke: #231f20;
        stroke-miterlimit: 10;
      }

      .cls-9, .cls-11, .cls-12, .cls-13, .cls-14, .cls-15, .cls-16, .cls-17 {
        stroke-width: .2px;
      }

      .cls-9, .cls-13 {
        fill: #a6a7d4;
      }

      .cls-18 {
        letter-spacing: 0em;
      }

      .cls-10 {
        stroke-width: .3px;
      }

      .cls-10, .cls-19 {
        fill: #a9dff3;
      }

      .cls-20 {
        mask: url(#mask);
      }

      .cls-21 {
        letter-spacing: 0em;
      }

      .cls-22 {
        letter-spacing: 0em;
      }

      .cls-23 {
        fill: #4ebd94;
      }

      .cls-24 {
        fill: #4cbc88;
      }

      .cls-4 {
        font-size: 31.71px;
      }

      .cls-11 {
        fill: #f79562;
      }

      .cls-12 {
        fill: #ee2a7b;
      }

      .cls-14 {
        fill: #b1c1c9;
      }

      .cls-15 {
        fill: #cd79b2;
      }

      .cls-16 {
        fill: #f8f5b6;
      }

      .cls-5 {
        font-size: 30.59px;
      }

      .cls-25 {
        letter-spacing: 0em;
      }

      .cls-26 {
        letter-spacing: -.03em;
      }

      .cls-17 {
        fill: none;
      }

      .cls-6 {
        font-size: 25.19px;
        stroke-width: .2px;
      }

      .cls-27 {
        letter-spacing: 0em;
      }

      .cls-28 {
        letter-spacing: 0em;
      }

      .cls-29 {
        letter-spacing: 0em;
      }

      .cls-7 {
        font-size: 25.1px;
      }

      .cls-30 {
        letter-spacing: -.01em;
      }

      .cls-31 {
        letter-spacing: 0em;
      }

      .cls-32 {
        letter-spacing: -.01em;
      }
    </style>
    <filter id="luminosity-invert" color-interpolation-filters="sRGB" filterUnits="userSpaceOnUse">
      <feColorMatrix values="-1 0 0 0 1 0 -1 0 0 1 0 0 -1 0 1 0 0 0 1 0"/>
    </filter>
    <mask id="mask" x="8747.14" y="-8497.58" width="-32766" height="32766" maskUnits="userSpaceOnUse"/>
  </defs>
  <g id="ground_blue_" data-name="ground (blue)">
    <g onclick=".className {
  color: yellow;
}

.className:hover {
  color: blue;
}" onfocusin=".className {
  color: yellow;
}

.className:hover {
  color: blue;
}">
      <polygon class="cls-19" points="11.36 658.67 11.26 .15 822.8 .28 857.71 161.75 859.64 658.8 11.36 658.67"/>
      <path class="cls-3" d="M11.41,.3c270.42,.04,540.85,.08,811.27,.13l34.88,161.35,1.93,496.88c-282.66-.04-565.32-.09-847.98-.13-.03-219.41-.07-438.81-.1-658.22m0-.3h-.3V.3l.05,329.11,.05,329.11v.3h.3l424.02,.07,423.96,.07h.3v-.3s-1.93-496.88-1.93-496.88v-.03s0-.03,0-.03L822.98,.36l-.05-.24h-.24L281.85,.04,11.41,0h0Z"/>
    </g>
    <polyline class="cls-12" onclick=".className {
  color: yellow;
}

.className:hover {
  color: blue;
}" onfocusin=".className {
  color: yellow;
}

.className:hover {
  color: blue;
}" points="433.32 455.27 481.59 518.69 481.59 514.84 481.59 419.81"/>
    <line class="cls-10" x1="433.32" y1="455.27" x2="481.59" y2="419.81" onclick=".className {
  color: yellow;
}

.className:hover {
  color: blue;
}" onfocusin=".className {
  color: yellow;
}

.className:hover {
  color: blue;
}"/>
  </g>
  <g id="paths">
    <g class="cls-20">
      <path class="cls-14" d="M500.01,658.52l-4.17-5.02c-13.25-14.83-33.09-37.27-56.7-64.98-79.09-92.84-131.8-155.26-181.6-240.55-15.13-25.91-35.86-63.99-56.91-112.58-50.9-3.52-101.79-7.04-152.69-10.56,11.66,6.57,29.61,17.45,49.68,33.24,72.08,56.71,68.6,95.69,152.19,192.43,6.6,7.64,30.62,39.05,60.59,80.88,8.22,11.48,22.11,31.21,28.2,60.33,5.83,27.92,2.03,51.99-1.77,66.89" onclick=".className {
  color: yellow;
}

.className:hover {
  color: blue;
}" onfocusin=".className {
  color: yellow;
}

.className:hover {
  color: blue;
}"/>
    </g>
    <path class="cls-14" d="M44.86,231.33c3.35,.11,7.35,.7,11.54,2.42,.71,.29,1.39,.6,2.04,.93l-.24-163.65c103.96,0,207.92-.01,311.87-.02,.03-3.49-.01-8.55-.34-14.65-1.07-19.72-1.85-37.1-8.29-45.44-9.72-12.6-31.56-7.31-64.34-4.36-16.01,1.44-90.31,7.11-160.95-1.42-20.36-2.46-41.17-6.38-49.07,4.49-7.48,10.28,3.94,23.7-2.67,40.94-6.88,17.92-26.2,21.6-37.08,29.53-17.7,12.89-29.47,48.94-2.46,151.23Z" onclick=".className {
  color: yellow;
}

.className:hover {
  color: blue;
}" onfocusin=".className {
  color: yellow;
}

.className:hover {
  color: blue;
}"/>
  </g>
  <g id="beds_features" data-name="beds/features">
    <rect class="cls-11" x="527.83" y="187.08" width="61.1" height="59.9" onclick=".className {
  color: yellow;
}

.className:hover {
  color: blue;
}" onfocusin=".className {
  color: yellow;
}

.className:hover {
  color: blue;
}"/>
    <rect class="cls-16" x="527.83" y="541.93" width="256.53" height="59.9" onclick=".className {
  color: yellow;
}

.className:hover {
  color: blue;
}" onfocusin=".className {
  color: yellow;
}

.className:hover {
  color: blue;
}" transform="translate(1312.2 1143.76) rotate(180)"/>
    <rect class="cls-16" x="527.83" y="450.23" width="256.53" height="59.9" onclick=".className {
  color: yellow;
}

.className:hover {
  color: blue;
}" onfocusin=".className {
  color: yellow;
}

.className:hover {
  color: blue;
}" transform="translate(1312.2 960.35) rotate(180)"/>
    <rect class="cls-16" x="527.83" y="361.48" width="256.53" height="59.9" onclick=".className {
  color: yellow;
}

.className:hover {
  color: blue;
}" onfocusin=".className {
  color: yellow;
}

.className:hover {
  color: blue;
}" transform="translate(1312.2 782.85) rotate(180)"/>
    <rect class="cls-16" x="527.83" y="265.08" width="256.53" height="59.9" onclick=".className {
  color: yellow;
}

.className:hover {
  color: blue;
}" onfocusin=".className {
  color: yellow;
}

.className:hover {
  color: blue;
}" transform="translate(1312.2 590.05) rotate(180)"/>
    <rect class="cls-16" x="527.83" y="187.08" width="256.53" height="59.9" onclick=".className {
  color: yellow;
}

.className:hover {
  color: blue;
}" onfocusin=".className {
  color: yellow;
}

.className:hover {
  color: blue;
}" transform="translate(1312.2 434.06) rotate(180)"/>
    <rect class="cls-16" x="527.83" y="91.77" width="256.53" height="59.9" onclick=".className {
  color: yellow;
}

.className:hover {
  color: blue;
}" onfocusin=".className {
  color: yellow;
}

.className:hover {
  color: blue;
}" transform="translate(1312.2 243.43) rotate(180)"/>
    <line class="cls-16" x1="656.1" y1="601.83" x2="656.1" y2="541.93" onclick=".className {
  color: yellow;
}

.className:hover {
  color: blue;
}" onfocusin=".className {
  color: yellow;
}

.className:hover {
  color: blue;
}"/>
    <line class="cls-16" x1="656.1" y1="151.66" x2="656.1" y2="91.77" onclick=".className {
  color: yellow;
}

.className:hover {
  color: blue;
}" onfocusin=".className {
  color: yellow;
}

.className:hover {
  color: blue;
}"/>
    <line class="cls-16" x1="656.1" y1="246.98" x2="656.1" y2="187.08" onclick=".className {
  color: yellow;
}

.className:hover {
  color: blue;
}" onfocusin=".className {
  color: yellow;
}

.className:hover {
  color: blue;
}"/>
    <line class="cls-16" x1="656.1" y1="324.97" x2="656.1" y2="265.08" onclick=".className {
  color: yellow;
}

.className:hover {
  color: blue;
}" onfocusin=".className {
  color: yellow;
}

.className:hover {
  color: blue;
}"/>
    <line class="cls-16" x1="656.1" y1="421.37" x2="656.1" y2="361.48" onclick=".className {
  color: yellow;
}

.className:hover {
  color: blue;
}" onfocusin=".className {
  color: yellow;
}

.className:hover {
  color: blue;
}"/>
    <line class="cls-16" x1="656.1" y1="510.12" x2="656.1" y2="450.23" onclick=".className {
  color: yellow;
}

.className:hover {
  color: blue;
}" onfocusin=".className {
  color: yellow;
}

.className:hover {
  color: blue;
}"/>
    <rect class="cls-16" x="196.28" y="396.26" width="296.51" height="59.9" onclick=".className {
  color: yellow;
}

.className:hover {
  color: blue;
}" onfocusin=".className {
  color: yellow;
}

.className:hover {
  color: blue;
}" transform="translate(205.01 956.19) rotate(-126.3)"/>
    <line class="cls-17" x1="338.05" y1="467.96" x2="386.32" y2="432.5" onclick=".className {
  color: yellow;
}

.className:hover {
  color: blue;
}" onfocusin=".className {
  color: yellow;
}

.className:hover {
  color: blue;
}"/>
    <line class="cls-17" x1="374.24" y1="517.23" x2="422.51" y2="481.77" onclick=".className {
  color: yellow;
}

.className:hover {
  color: blue;
}" onfocusin=".className {
  color: yellow;
}

.className:hover {
  color: blue;
}"/>
    <line class="cls-17" x1="301.95" y1="418.81" x2="350.22" y2="383.35" onclick=".className {
  color: yellow;
}

.className:hover {
  color: blue;
}" onfocusin=".className {
  color: yellow;
}

.className:hover {
  color: blue;
}"/>
    <rect class="cls-16" x="103.67" y="431.25" width="251.9" height="59.9" onclick=".className {
  color: yellow;
}

.className:hover {
  color: blue;
}" onfocusin=".className {
  color: yellow;
}

.className:hover {
  color: blue;
}" transform="translate(-6.15 919.29) rotate(-126.3)"/>
    <line class="cls-17" x1="204.11" y1="477.06" x2="252.38" y2="441.61" onclick=".className {
  color: yellow;
}

.className:hover {
  color: blue;
}" onfocusin=".className {
  color: yellow;
}

.className:hover {
  color: blue;
}"/>
    <line class="cls-17" x1="241.42" y1="527.85" x2="289.69" y2="492.39" onclick=".className {
  color: yellow;
}

.className:hover {
  color: blue;
}" onfocusin=".className {
  color: yellow;
}

.className:hover {
  color: blue;
}"/>
    <line class="cls-17" x1="169.99" y1="430.62" x2="218.27" y2="395.16" onclick=".className {
  color: yellow;
}

.className:hover {
  color: blue;
}" onfocusin=".className {
  color: yellow;
}

.className:hover {
  color: blue;
}"/>
    <rect class="cls-11" x="102.01" y="498.8" width="128.27" height="59.9" onclick=".className {
  color: yellow;
}

.className:hover {
  color: blue;
}" onfocusin=".className {
  color: yellow;
}

.className:hover {
  color: blue;
}" transform="translate(-161.64 975.67) rotate(-126.3)"/>
    <line class="cls-17" x1="206.01" y1="164.77" x2="206.01" y2="163.23" onclick=".className {
  color: yellow;
}

.className:hover {
  color: blue;
}" onfocusin=".className {
  color: yellow;
}

.className:hover {
  color: blue;
}"/>
    <line class="cls-17" x1="207.56" y1="163.23" x2="206.01" y2="163.23" onclick=".className {
  color: yellow;
}

.className:hover {
  color: blue;
}" onfocusin=".className {
  color: yellow;
}

.className:hover {
  color: blue;
}"/>
    <line class="cls-17" x1="36.27" y1="160.02" x2="36.27" y2="163.23" onclick=".className {
  color: yellow;
}

.className:hover {
  color: blue;
}" onfocusin=".className {
  color: yellow;
}

.className:hover {
  color: blue;
}"/>
    <rect class="cls-15" x="375.74" y=".25" width="138.84" height="129.26" onclick=".className {
  color: yellow;
}

.className:hover {
  color: blue;
}" onfocusin=".className {
  color: yellow;
}

.className:hover {
  color: blue;
}" transform="translate(890.32 129.77) rotate(180)"/>
    <line class="cls-17" x1="11.85" y1="69.87" x2="11.85" y2="658.6" onclick=".className {
  color: yellow;
}

.className:hover {
  color: blue;
}" onfocusin=".className {
  color: yellow;
}

.className:hover {
  color: blue;
}"/>
    <line class="cls-17" x1="11.85" y1=".25" x2="11.85" y2="69.87" onclick=".className {
  color: yellow;
}

.className:hover {
  color: blue;
}" onfocusin=".className {
  color: yellow;
}

.className:hover {
  color: blue;
}"/>
    <path class="cls-11" d="M11.85,82.81H51.27c0,47.92,0,95.84,0,143.76,0,144.15,0,288.3,0,432.46H11.85V82.81Z" onclick=".className {
  color: yellow;
}

.className:hover {
  color: blue;
}" onfocusin=".className {
  color: yellow;
}

.className:hover {
  color: blue;
}"/>
    <path class="cls-11" d="M801.99,.25H11.85" onclick=".className {
  color: yellow;
}

.className:hover {
  color: blue;
}" onfocusin=".className {
  color: yellow;
}

.className:hover {
  color: blue;
}"/>
    <path class="cls-11" d="M11.86,658.6H861.13c-.64-165.66-1.29-331.31-1.93-496.97h0C835.04,54.08,822.97,.35,822.94,.25t0,0h-20.95V627.07h-287.41v31.53H11.86Z" onclick=".className {
  color: yellow;
}

.className:hover {
  color: blue;
}" onfocusin=".className {
  color: yellow;
}

.className:hover {
  color: blue;
}"/>
    <g onclick=".className {
  color: yellow;
}

.className:hover {
  color: blue;
}" onfocusin=".className {
  color: yellow;
}

.className:hover {
  color: blue;
}">
      <circle class="cls-13" cx="47.94" cy="37.73" r="35.35"/>
      <path class="cls-9" d="M206.01,164.21v71.25c-.14,0-14.01,0-14.15,0-.21,0-19.23,0-19.48,0-9.38,0-39.43-.05-114.45-.22-.08-55.12-.15-110.25-.23-165.37,106.02,.36,212.03,.72,318.05,1.08v92.29c-56.58,.32-113.16,.65-169.73,.97Z"/>
    </g>
    <line class="cls-17" x1="477.12" y1="664.88" x2="477.12" y2="665.08" onclick=".className {
  color: yellow;
}

.className:hover {
  color: blue;
}" onfocusin=".className {
  color: yellow;
}

.className:hover {
  color: blue;
}"/>
    <line class="cls-17" x1="481.79" y1="658.6" x2="341.99" y2="658.6" onclick=".className {
  color: yellow;
}

.className:hover {
  color: blue;
}" onfocusin=".className {
  color: yellow;
}

.className:hover {
  color: blue;
}"/>
    <line class="cls-17" x1="267.72" y1="372.21" x2="315.99" y2="336.76" onclick=".className {
  color: yellow;
}

.className:hover {
  color: blue;
}" onfocusin=".className {
  color: yellow;
}

.className:hover {
  color: blue;
}"/>
    <line class="cls-16" x1="591.97" y1="510.12" x2="591.97" y2="450.23" onclick=".className {
  color: yellow;
}

.className:hover {
  color: blue;
}" onfocusin=".className {
  color: yellow;
}

.className:hover {
  color: blue;
}"/>
    <line class="cls-16" x1="588.94" y1="246.98" x2="588.94" y2="187.08" onclick=".className {
  color: yellow;
}

.className:hover {
  color: blue;
}" onfocusin=".className {
  color: yellow;
}

.className:hover {
  color: blue;
}"/>
    <line class="cls-16" x1="588.94" y1="151.66" x2="588.94" y2="91.77" onclick=".className {
  color: yellow;
}

.className:hover {
  color: blue;
}" onfocusin=".className {
  color: yellow;
}

.className:hover {
  color: blue;
}"/>
    <rect class="cls-12" x="527.83" y="187.08" width="61.1" height="59.9" onclick=".className {
  color: yellow;
}

.className:hover {
  color: blue;
}" onfocusin=".className {
  color: yellow;
}

.className:hover {
  color: blue;
}"/>
    <rect class="cls-11" x="244.69" y="300.96" width="59.1" height="59.6" onclick=".className {
  color: yellow;
}

.className:hover {
  color: blue;
}" onfocusin=".className {
  color: yellow;
}

.className:hover {
  color: blue;
}" transform="translate(378.46 -86.07) rotate(53.7)"/>
    <rect class="cls-11" x="141.32" y="356.35" width="66.35" height="59.6" onclick=".className {
  color: yellow;
}

.className:hover {
  color: blue;
}" onfocusin=".className {
  color: yellow;
}

.className:hover {
  color: blue;
}" transform="translate(382.41 16.92) rotate(53.7)"/>
    <line class="cls-16" x1="590.43" y1="324.97" x2="590.43" y2="265.08" onclick=".className {
  color: yellow;
}

.className:hover {
  color: blue;
}" onfocusin=".className {
  color: yellow;
}

.className:hover {
  color: blue;
}"/>
    <rect class="cls-12" x="590.43" y="265.08" width="65.67" height="59.9" onclick=".className {
  color: yellow;
}

.className:hover {
  color: blue;
}" onfocusin=".className {
  color: yellow;
}

.className:hover {
  color: blue;
}"/>
    <rect class="cls-12" x="589.68" y="91.77" width="65.67" height="59.9" onclick=".className {
  color: yellow;
}

.className:hover {
  color: blue;
}" onfocusin=".className {
  color: yellow;
}

.className:hover {
  color: blue;
}"/>
  </g>
  <g id="Text">
    <g onclick=".className {
  color: yellow;
}

.className:hover {
  color: blue;
}" onfocusin=".className {
  color: yellow;
}

.className:hover {
  color: blue;
}">
      <text class="cls-2" transform="translate(407.1 46.11)"><tspan class="cls-21" x="0" y="0">B</tspan><tspan class="cls-18" x="20.06" y="0">ees</tspan></text>
      <text class="cls-5" transform="translate(822.94 276.85) rotate(90)"><tspan class="cls-30" x="0" y="0">C</tspan><tspan class="cls-31" x="17.41" y="0">ommuni</tspan><tspan class="cls-29" x="126.23" y="0">t</tspan><tspan x="136.63" y="0">y </tspan><tspan class="cls-22" x="157.52" y="0">B</tspan><tspan x="174.23" y="0">ed</tspan></text>
      <text class="cls-7" transform="translate(24.93 46.11)"><tspan x="0" y="0">H₂O</tspan></text>
      <text class="cls-5" transform="translate(533.52 594.13)"><tspan x="0" y="0">1</tspan></text>
      <text class="cls-5" transform="translate(662.41 594.13)"><tspan x="0" y="0">2</tspan></text>
      <text class="cls-5" transform="translate(533.52 503.14)"><tspan x="0" y="0">3a</tspan></text>
      <text class="cls-5" transform="translate(662.41 500.26)"><tspan x="0" y="0">4</tspan></text>
      <text class="cls-5" transform="translate(532.23 237.98)"><tspan x="0" y="0">9a</tspan></text>
      <text class="cls-5" transform="translate(662.41 316.19)"><tspan x="0" y="0">8</tspan></text>
      <text class="cls-5" transform="translate(533.62 316.19)"><tspan x="0" y="0">7</tspan><tspan class="cls-8" x="15.69" y="0">a</tspan></text>
      <text class="cls-5" transform="translate(662.41 410.54)"><tspan x="0" y="0">6</tspan></text>
      <text class="cls-5" transform="translate(533.52 410.54)"><tspan x="0" y="0">5</tspan></text>
      <text class="cls-5" transform="translate(658.51 239.66)"><tspan x="0" y="0">10</tspan></text>
      <g>
        <rect class="cls-16" x="334.9" y="345.55" width="153.96" height="59.9" transform="translate(353.09 929.74) rotate(-126.3)"/>
        <path class="cls-17" d="M420.59,336.76l-48.27,35.46,48.27-35.46Z"/>
        <text class="cls-4" transform="translate(392.16 369.28) rotate(53.7)"><tspan x="0" y="0">14</tspan></text>
        <text class="cls-4" transform="translate(363.22 328.49) rotate(53.7)"><tspan x="0" y="0">15</tspan></text>
        <path class="cls-17" d="M401.84,412.4l48.27-35.46-48.27,35.46Z"/>
        <text class="cls-4" transform="translate(422.25 410.05) rotate(53.7)"><tspan x="0" y="0">13</tspan></text>
        <rect class="cls-12" x="386.18" y="344.5" width="49.87" height="59.9" transform="translate(469.52 -178.56) rotate(53.7)"/>
        <text class="cls-4" transform="translate(392.16 369.28) rotate(53.7)"><tspan x="0" y="0">14</tspan></text>
      </g>
      <text class="cls-5" transform="translate(532.23 143.7)"><tspan x="0" y="0">11a</tspan></text>
      <text class="cls-5" transform="translate(658.51 143.7)"><tspan x="0" y="0">12</tspan></text>
      <text class="cls-4" transform="translate(394.04 514.84) rotate(53.7)"><tspan x="0" y="0">16</tspan></text>
      <text class="cls-4" transform="translate(360.31 467.91) rotate(53.7)"><tspan x="0" y="0">17</tspan></text>
      <text class="cls-4" transform="translate(326.08 421.37) rotate(53.7)"><tspan x="0" y="0">18</tspan></text>
      <text class="cls-4" transform="translate(289.06 370.92) rotate(53.7)"><tspan x="0" y="0">19</tspan></text>
      <text class="cls-4" transform="translate(254.91 324.97) rotate(53.7)"><tspan x="0" y="0">20</tspan></text>
      <text class="cls-4" transform="translate(265.09 525.47) rotate(53.7)"><tspan x="0" y="0">21</tspan></text>
      <text class="cls-4" transform="translate(229.78 477.89) rotate(53.7)"><tspan x="0" y="0">22</tspan></text>
      <text class="cls-4" transform="translate(194.18 428.57) rotate(53.7)"><tspan x="0" y="0">23</tspan></text>
      <text class="cls-4" transform="translate(157.68 382.3) rotate(53.7)"><tspan x="0" y="0">24</tspan></text>
      <text class="cls-1" transform="translate(82.14 136.46)"><tspan x="0" y="0">Shed</tspan></text>
      <text class="cls-4" transform="translate(160.64 538.38) rotate(53.7)"><tspan x="0" y="0">25</tspan></text>
      <text class="cls-5" transform="translate(594.7 503.14)"><tspan x="0" y="0">3b</tspan></text>
      <text class="cls-5" transform="translate(595 237.98)"><tspan x="0" y="0">9b</tspan></text>
      <text class="cls-5" transform="translate(590.43 143.7)"><tspan x="0" y="0">11b</tspan></text>
      <text class="cls-5" transform="translate(595 314.57)"><tspan x="0" y="0">7b</tspan></text>
      <text class="cls-5" transform="translate(441.53 455.25) rotate(53.7)"><tspan x="0" y="0">26</tspan></text>
    </g>
    <text class="cls-6" onclick=".className {
  color: yellow;
}

.className:hover {
  color: blue;
}" onfocusin=".className {
  color: yellow;
}

.className:hover {
  color: blue;
}" transform="translate(254.91 415.55) rotate(53.7)"><tspan class="cls-26" x="0" y="0">P</tspan><tspan class="cls-28" x="12.75" y="0">a</tspan><tspan x="24.78" y="0">t</tspan><tspan class="cls-32" x="33.12" y="0">h</tspan><tspan class="cls-28" x="46.77" y="0">w</tspan><tspan class="cls-27" x="65.21" y="0">a</tspan><tspan class="cls-25" x="77.15" y="0">y</tspan></text>
  </g>
  <g id="trees">
    <g onclick=".className {
  color: yellow;
}

.className:hover {
  color: blue;
}" onfocusin=".className {
  color: yellow;
}

.className:hover {
  color: blue;
}">
      <g>
        <path class="cls-24" d="M230.26,310.98c-4.29,4.08-10.34,5.61-15.73,5.08-5.39-.52-10.22-2.86-14.7-5.53-1.72-1.03-3.46-2.16-4.48-3.9-1.87-3.17-.92-7.71,1.33-11.18s5.56-6.11,8.8-8.66c-8.98,.86-20.07,.49-22.85-7.77-1.04-3.08-.57-6.65,.31-10.03,2.93-11.13,10.59-21.47,20.5-27.69,2.59-1.62,6.06-2.92,8.06-1.09,1.93-6.65,5.37-13.03,9.96-18.46,2.66-3.14,6.14-6.17,9.96-6.28,1.94-.05,3.73,.68,5.36,1.55,8.02,4.3,13.59,12.5,14.9,21.94,12.57-.6,25.14,5.13,29.73,16.38,4.59,11.25-1.22,27.71-13.3,32.97,7.26,8.39,2.67,24.61-8.05,30.92-10.72,6.3-24.56,2.37-29.88-7.51"/>
        <path class="cls-3" d="M230.26,310.9c-2.87,2.71-6.58,4.36-10.47,4.93-4.11,.61-8.26-.08-12.13-1.53-2.03-.76-3.99-1.72-5.88-2.78-1.77-.99-3.65-1.99-5.11-3.42-3.07-3.02-2.52-7.65-.74-11.2,2.12-4.22,5.99-7.24,9.62-10.11,.04-.03,0-.11-.04-.11-7.76,.74-20.68,1.13-23.04-8.59-.77-3.16-.16-6.51,.69-9.59,.73-2.64,1.71-5.21,2.91-7.67,2.42-4.96,5.71-9.49,9.64-13.35,2.21-2.17,4.64-4.13,7.24-5.82,2.24-1.45,6.08-3.61,8.53-1.45,.04,.03,.09,.02,.1-.03,1.29-4.43,3.21-8.66,5.66-12.57,1.25-2,2.64-3.91,4.16-5.72s3.05-3.36,4.93-4.6,3.98-2.01,6.21-1.74,4.31,1.44,6.17,2.64c3.29,2.13,6.09,4.97,8.24,8.24,2.47,3.76,4.05,8.06,4.67,12.51,0,.03,.04,.05,.06,.05,5.3-.24,10.67,.6,15.57,2.67s8.95,5.16,11.83,9.42c2.66,3.92,3.93,8.47,3.84,13.19s-1.39,9.27-3.63,13.33-5.53,7.65-9.65,9.87c-.51,.27-1.03,.52-1.55,.76-.04,.02-.04,.07-.01,.1,2.71,3.16,3.7,7.38,3.47,11.48-.25,4.43-1.83,8.78-4.31,12.45-2.65,3.93-6.4,7-10.88,8.62s-9.56,1.73-14.16,.31c-4.45-1.37-8.49-4.17-11.08-8.07-.31-.47-.61-.96-.88-1.46-.04-.07-.15,0-.11,.06,4.38,8.06,14.16,11.9,22.99,10.18,4.48-.87,8.59-3.14,11.72-6.46,2.97-3.14,5.1-7.09,6.15-11.28,.97-3.85,1.05-8.05-.38-11.8-.34-.88-.75-1.72-1.25-2.52-.23-.37-.48-.72-.75-1.07-.08-.11-.39-.39-.34-.5,.06-.14,.69-.32,.84-.4,1.94-.97,3.72-2.24,5.3-3.73,6.25-5.89,9.56-15.15,8.42-23.67-.59-4.42-2.57-8.54-5.51-11.87-3.13-3.55-7.26-6.12-11.7-7.72-2.33-.84-4.74-1.41-7.19-1.74-1.27-.17-2.54-.27-3.82-.31-.62-.02-1.23-.02-1.85-.01-.21,0-.75,.12-.93,.03-.24-.13-.22-.79-.27-1.04-.86-4.92-2.93-9.62-6.03-13.54-1.53-1.94-3.31-3.68-5.29-5.15-2.09-1.56-4.55-3.12-7.16-3.61-5.59-1.05-10.13,4.05-13.17,8.01-3.63,4.72-6.46,10.09-8.22,15.78-.05,.17-.09,.35-.16,.51-.1,.24-.01,.22-.21,.13s-.39-.27-.6-.37c-.47-.22-.98-.33-1.49-.36-1.2-.06-2.4,.3-3.5,.76-2.4,1.01-4.58,2.64-6.6,4.26-4.23,3.39-7.88,7.51-10.76,12.11s-5.16,9.84-6.1,15.24c-.47,2.7-.53,5.57,.55,8.14,.75,1.79,2.02,3.3,3.61,4.4,3.54,2.44,8.15,2.94,12.33,2.99,2.23,.03,4.47-.1,6.69-.32l-.04-.11c-3.39,2.68-6.94,5.46-9.16,9.24-1.83,3.13-2.94,7.52-.89,10.81,1.08,1.73,2.86,2.85,4.57,3.87,1.95,1.15,3.94,2.23,6.02,3.13,3.9,1.68,8.11,2.69,12.37,2.35s8.72-2.07,11.96-5.13c.06-.06-.03-.14-.09-.09h0Z"/>
      </g>
      <g>
        <path class="cls-24" d="M737.2,103.28c-4.34,4.05-9.46,8.17-15.68,8.31-7.92,.18-14.91-7.62-13.2-14.71-8.64,1.35-17.75-2.36-23.61-8.45-5.86-6.1-8.7-14.27-9.19-22.34-.23-3.86,.47-8.4,4.14-10.22,.78-.38,1.72-.69,2.04-1.44,.3-.71-.1-1.5-.49-2.18-1.99-3.49-3.99-6.99-5.98-10.48-1.39-2.43-2.82-5.14-2.14-7.79,.57-2.21,2.49-3.86,4.08-5.59,3.14-3.41,5.26-7.61,6.08-12.04,.33-1.81,.5-3.76,1.74-5.19,.79-.91,1.95-1.51,3.14-1.92,9.33-3.22,19.2,3.61,29.18,4.46,5.73,.49,11.38-1.03,17.08-1.64,8.64-.93,17.57,.25,25.64,3.4,2.69,1.05,5.6,2.71,5.99,5.36,.2,1.35-.32,2.67-.67,3.99-1.81,6.93,1.84,14.84,8.55,18.54-2.13,.66-3.19,2.95-3.1,5.02s1.08,4.02,1.87,5.98c2.13,5.27,2.96,10.97,2.4,16.53-.36,3.59-1.74,7.64-5.39,8.95-2.21,.79-4.99,.46-6.67,1.99-2.23,2.02-.82,5.51-1.31,8.38-.75,4.42-5.89,6.78-10.4,8.43-4.24,1.56-8.47,3.12-12.71,4.67"/>
        <path class="cls-3" d="M737.28,103.28c-4.15,3.87-8.98,7.81-14.87,8.25-5.08,.38-10.04-2.46-12.58-6.84-1.36-2.34-1.94-5.1-1.32-7.75,.01-.05-.03-.08-.08-.08-7.13,1.09-14.52-1.19-20.23-5.5s-9.74-11.12-11.46-18.25c-.79-3.27-1.33-6.8-.99-10.17,.16-1.54,.54-3.09,1.33-4.43,.38-.64,.85-1.22,1.42-1.7,.64-.54,1.37-.87,2.11-1.23,.56-.27,1.15-.63,1.33-1.27,.23-.82-.32-1.66-.7-2.33-1.1-1.92-2.2-3.85-3.3-5.77s-2.2-3.76-3.22-5.68-1.92-3.99-1.52-6.15c.34-1.84,1.64-3.29,2.88-4.59s2.49-2.66,3.53-4.17c2.07-3.02,3.36-6.42,3.97-10.02,.31-1.8,.67-3.67,2.15-4.91s3.42-1.73,5.23-2.01c3.6-.55,7.25,.15,10.72,1.11s7.14,2.29,10.79,3.17c1.76,.42,3.55,.75,5.36,.88,2.13,.15,4.27,.03,6.39-.21,4.22-.48,8.38-1.39,12.63-1.66s8.28-.05,12.36,.62,7.98,1.69,11.68,3.29c1.5,.65,3.03,1.48,4.11,2.74,.52,.61,.92,1.34,1.06,2.14,.2,1.11-.12,2.22-.42,3.28-.85,2.97-.9,6-.02,8.98s2.49,5.57,4.66,7.68c1.11,1.08,2.36,2,3.72,2.76v-.11c-2.11,.7-3.22,2.94-3.13,5.08,.07,1.55,.63,3.02,1.22,4.44s1.22,2.96,1.69,4.49c.95,3.1,1.46,6.33,1.52,9.57,.05,2.74-.12,5.6-1.11,8.18-.93,2.42-2.68,4.35-5.26,4.97-2.22,.53-5.17,.35-6.51,2.57-1.24,2.05-.39,4.72-.57,6.96-.21,2.57-1.9,4.53-3.96,5.92-2.16,1.47-4.61,2.41-7.04,3.3-3.23,1.19-6.45,2.37-9.68,3.56-.82,.3-1.64,.6-2.47,.91-.07,.03-.04,.15,.03,.12,3.23-1.19,6.45-2.37,9.68-3.56,2.61-.96,5.27-1.84,7.73-3.14,1.97-1.04,3.94-2.41,5.03-4.41,1.2-2.19,.67-4.55,.72-6.92,.02-1.3,.31-2.63,1.34-3.52s2.44-1.11,3.74-1.32c1.22-.19,2.46-.36,3.58-.92,.99-.49,1.82-1.24,2.47-2.12,1.35-1.83,1.96-4.14,2.2-6.38,.34-3.1,.23-6.26-.29-9.34s-1.59-6.16-2.81-9.14c-1.06-2.57-1.96-5.81,.19-8.11,.47-.51,1.06-.87,1.71-1.08,.05-.02,.06-.09,.01-.11-3.56-1.99-6.38-5.2-7.86-9.01-.7-1.8-1.09-3.72-1.12-5.65-.01-1,.07-2,.27-2.99,.22-1.13,.65-2.21,.83-3.35,.66-4.3-4.13-6.25-7.41-7.42-4.66-1.67-9.56-2.68-14.49-3.04-2.5-.18-5.01-.19-7.52-.03s-5.05,.55-7.56,.94c-2.66,.42-5.33,.84-8.02,.96-2.53,.11-5.03-.12-7.51-.64-4.54-.96-8.86-2.69-13.36-3.8-4.1-1.01-8.52-1.49-12.55,.09-.91,.36-1.8,.83-2.49,1.53s-1.13,1.61-1.4,2.55c-.3,1.06-.42,2.15-.64,3.22s-.52,2.2-.9,3.26c-.78,2.2-1.88,4.27-3.25,6.16s-3.11,3.38-4.53,5.19c-1.32,1.69-1.88,3.61-1.4,5.73,.56,2.43,2.02,4.61,3.24,6.75,1.37,2.4,2.74,4.8,4.11,7.2,.6,1.04,2.04,2.82,.91,3.93-.7,.69-1.78,.91-2.58,1.48-2.93,2.09-3.46,6.13-3.29,9.47,.21,4.32,1.14,8.66,2.79,12.66s4.07,7.76,7.22,10.78,6.72,5.14,10.69,6.5c2,.69,4.08,1.15,6.19,1.35,1.1,.11,2.21,.14,3.32,.1,.51-.02,1.03-.06,1.54-.11,.22-.02,.44-.05,.66-.08,0,0,.3-.06,.32-.05,.09,.07,0,.24-.01,.36-.65,3.44,.71,6.94,2.96,9.53,2.39,2.74,5.86,4.61,9.52,4.79,4.32,.21,8.39-1.75,11.79-4.25,1.69-1.24,3.27-2.63,4.8-4.06,.06-.05-.03-.14-.09-.09h0Z"/>
      </g>
      <g>
        <path class="cls-23" d="M356.02,259.73c-6.3,5.2-4.93,11.38-9.01,12.99-2.29,.9-6.47,.43-14.59-7.65-6.28,3.61-14.44,3.39-20.79,.34-6.35-3.06-10.99-8.64-13.77-14.83-1.33-2.96-2.14-6.74,.16-9.25,.49-.53,1.13-1.05,1.15-1.74,.02-.65-.52-1.15-1.03-1.57-2.58-2.16-5.17-4.31-7.75-6.47-1.8-1.5-3.71-3.2-3.98-5.49-.22-1.91,.78-3.77,1.49-5.6,1.42-3.61,1.81-7.54,1.12-11.25-.28-1.52-.73-3.1-.2-4.59,.34-.95,1.06-1.76,1.86-2.43,6.26-5.29,15.94-2.84,23.92-5.12,4.58-1.31,8.51-4.17,12.73-6.34,6.41-3.29,13.68-5,20.85-4.91,2.39,.03,5.14,.47,6.23,2.44,.67,1.22,.45,2.04,.67,3.33,1.07,6.08,11.79,7.1,12.14,12.04,.13,1.9-1.4,2.59-.9,4.86,.43,1.97,2.04,2.85,3.23,4.14,3.22,3.51,5.56,7.74,6.78,12.28,.79,2.93,.93,6.52-1.5,8.63-1.47,1.28-3.72,1.84-4.57,3.54-1.08,2.15,1.34,3.7,1.48,6.97,.2,4.31-3.49,7.77-5.54,9.7-4.32,4.06-6.22,2.71-10.2,6Z"/>
        <path class="cls-3" d="M356.01,259.72c-2.23,1.86-3.81,4.2-4.94,6.86-.76,1.8-1.3,4.04-2.83,5.37-2.32,2.03-5.66,.76-7.97-.58-2.89-1.68-5.42-3.98-7.78-6.32-.02-.02-.05-.02-.08,0-4.02,2.29-8.76,3.04-13.32,2.49s-8.82-2.43-12.38-5.31-6.09-6.28-8.06-10.16c-.98-1.93-1.86-4-1.98-6.19-.06-1.08,.08-2.19,.55-3.18,.23-.48,.52-.91,.88-1.3s.74-.7,.98-1.15c.45-.81-.04-1.53-.66-2.07-.99-.88-2.04-1.71-3.06-2.55-2.03-1.69-4.13-3.33-6.08-5.11-.82-.75-1.6-1.57-2.15-2.54-.62-1.11-.79-2.35-.53-3.6s.8-2.39,1.27-3.56c.5-1.23,.89-2.49,1.15-3.79,.48-2.36,.56-4.79,.2-7.17-.2-1.3-.6-2.59-.55-3.92,.06-1.43,.82-2.56,1.86-3.49,3.17-2.85,7.53-3.56,11.63-3.88s8.54-.26,12.63-1.47c4.65-1.37,8.6-4.29,12.89-6.45,4.56-2.29,9.52-3.79,14.59-4.42,2.35-.29,4.79-.47,7.16-.28,2.04,.16,4.41,.78,5.22,2.9,.36,.94,.24,1.97,.45,2.95,.13,.63,.38,1.22,.71,1.77,.7,1.16,1.76,2.06,2.86,2.83,1.2,.84,2.49,1.54,3.76,2.27,1.19,.69,2.41,1.39,3.4,2.35,.92,.89,1.57,2.08,1.33,3.39-.14,.76-.57,1.42-.8,2.15-.28,.89-.18,1.86,.19,2.71s.94,1.46,1.58,2.06c.74,.7,1.47,1.38,2.13,2.15,1.55,1.81,2.88,3.81,3.95,5.94s1.92,4.32,2.36,6.61c.39,1.97,.44,4.19-.57,6-.53,.95-1.31,1.64-2.22,2.2-.8,.49-1.65,.9-2.39,1.48-.62,.48-1.17,1.12-1.36,1.9-.16,.64-.02,1.29,.22,1.9,.3,.77,.7,1.49,.99,2.27,.38,1.03,.56,2.1,.47,3.2-.18,2.1-1.24,4-2.53,5.62-1.15,1.43-2.5,2.76-3.91,3.93s-3.09,1.99-4.85,2.66c-1.61,.62-3.07,1.4-4.4,2.5-.06,.05,.03,.14,.09,.09,.94-.77,1.95-1.43,3.06-1.94,.87-.4,1.78-.7,2.67-1.07,2.09-.88,3.78-2.29,5.39-3.86s3.12-3.3,3.98-5.38c.44-1.06,.69-2.2,.66-3.35s-.36-2.18-.81-3.19c-.38-.86-.93-1.76-.95-2.73-.03-1.19,.85-2.1,1.78-2.73s1.98-1.09,2.86-1.79,1.49-1.62,1.84-2.67c.75-2.24,.32-4.7-.34-6.91-.8-2.67-1.98-5.23-3.5-7.57-.75-1.16-1.58-2.27-2.48-3.31-.79-.92-1.72-1.67-2.55-2.55-.91-.97-1.54-2.26-1.33-3.62,.15-.94,.75-1.73,.92-2.67,.58-3.19-3.3-5.04-5.54-6.31-1.55-.88-3.13-1.77-4.45-2.98-.61-.57-1.16-1.21-1.56-1.95-.5-.94-.61-1.93-.7-2.98s-.43-2.14-1.27-2.9c-.79-.72-1.83-1.09-2.86-1.3-1.21-.25-2.44-.27-3.67-.26-1.5,.02-3.01,.11-4.5,.28-5.9,.67-11.6,2.52-16.81,5.38-2.57,1.41-5.04,2.98-7.7,4.22s-5.24,1.89-8.04,2.22c-4.97,.58-10.19,.19-14.99,1.8-2.18,.73-4.54,1.98-5.87,3.92-.8,1.16-.89,2.49-.68,3.85,.24,1.57,.6,3.1,.65,4.69,.11,3.14-.54,6.21-1.75,9.1-.56,1.34-1.19,2.73-1.21,4.22-.02,1.24,.46,2.39,1.19,3.37s1.74,1.88,2.72,2.7c1.26,1.05,2.52,2.1,3.78,3.15s2.54,2.12,3.81,3.18c.53,.44,1.31,.98,1.28,1.75s-.77,1.28-1.23,1.8c-1.58,1.81-1.6,4.32-1.04,6.54,.61,2.42,1.85,4.73,3.16,6.83,2.72,4.36,6.48,8.11,11.07,10.45s10.22,3.2,15.39,2.15c1.33-.27,2.63-.67,3.88-1.19,.59-.25,1.16-.52,1.72-.83,.15-.08,.26-.18,.43-.1,.16,.08,.31,.3,.44,.43,.3,.29,.61,.58,.91,.87,1.77,1.65,3.63,3.24,5.69,4.53s4.48,2.48,6.88,1.91c3.26-.78,3.93-4.69,5.14-7.29,1.07-2.29,2.56-4.29,4.51-5.91,.06-.05-.03-.14-.09-.09Z"/>
      </g>
      <g>
        <path class="cls-24" d="M72.15,465.51c1.09-3.74,2.24-7.57,4.98-10.47s7.48-4.71,12.46-3.49c8.27,2.02,12.31,10.34,14.62,17.15,6.94-.6,14.2-1.17,21.38,1.01,7.19,2.17,14.18,8.01,14.12,13.86-.04,4.47-4.06,7.99-3.06,12.56,.45,2.07,1.89,4.06,3.34,5.97,3.09,4.05,6.46,8.17,7.66,12.58,1.2,4.41-.51,9.23-5.35,10.26-2.39,.51-5.24,.05-7.49,.79-6.44,2.13-2.77,10.88-5.25,16.23-3.08,6.66-14.54,6.39-23.96,5.28-2.76-.32-5.7-.7-8.14-2.17-1.79-1.07-3.1-2.6-4.45-4.04-3.67-3.92-7.96-7.5-12.68-10.57-1.11-.72-2.31-1.44-3.6-1.63-2.44-.35-4.05,1.26-5.81,2.33-4.04,2.44-10.26,2.11-15.75,.26-5.49-1.86-10.43-5.05-15.18-8.26-2.5-1.69-5.19-3.64-5.92-6.07-.83-2.76,1.17-5.05,3.27-6.8,6.2-5.19,14.1-9,22.98-11.07-4.61-3.22-6.16-8.64-4.66-12.65s5.49-6.78,9.96-8.62c3.73-1.53,8.05-2.65,10.24-5.54,2.19-2.89,.54-8.35-4.04-9.49"/>
        <path class="cls-3" d="M72.31,465.69c.99-3.38,2.03-6.87,4.28-9.66,2.11-2.6,5.25-4.22,8.57-4.57s6.63,.62,9.36,2.46c2.42,1.63,4.34,3.91,5.86,6.38,1.65,2.68,2.86,5.61,3.88,8.58,0,.02,.03,.05,.06,.05,9.73-.84,20.2-1.33,28.6,4.52,3.2,2.22,6.55,5.6,6.83,9.72s-2.75,7.04-3.16,10.84c-.23,2.12,.57,4.05,1.69,5.8,1.33,2.08,2.94,3.98,4.41,5.95,2.56,3.45,5.5,7.57,5.38,12.07-.05,1.77-.6,3.54-1.74,4.91-1.32,1.58-3.23,2.3-5.24,2.48-3.31,.3-7.52-.28-9.35,3.21-1.35,2.59-.99,5.83-1.13,8.65-.08,1.58-.24,3.2-.84,4.68s-1.61,2.64-2.89,3.51c-2.9,1.99-6.68,2.48-10.11,2.63-4,.17-8.03-.18-12-.68-2.34-.29-4.73-.7-6.82-1.85s-3.58-2.97-5.18-4.66c-3.25-3.41-6.87-6.45-10.75-9.12-1.77-1.22-3.8-2.82-6.07-2.71-1.87,.09-3.29,1.36-4.81,2.3-3.78,2.35-8.74,2.11-12.92,1.16-4.82-1.1-9.27-3.43-13.43-6.03-2-1.25-3.99-2.54-5.91-3.91-1.8-1.28-3.85-2.84-4.59-5.02-.79-2.32,.58-4.43,2.2-5.99s3.37-2.82,5.18-4.02c3.76-2.5,7.86-4.49,12.12-6,2.18-.77,4.4-1.41,6.65-1.94,.06-.01,.06-.09,.01-.11-3.02-2.13-5.14-5.55-5.18-9.31s2.27-6.86,5.2-8.98c3.24-2.35,7.05-3.39,10.66-4.99,2.67-1.18,5.67-2.99,5.84-6.22s-2.02-6.02-5.04-6.8c-.08-.02-.11,.1-.03,.12,2.46,.64,4.33,2.64,4.83,5.13,.22,1.09,.17,2.26-.26,3.29-.52,1.25-1.6,2.21-2.7,2.94-2.56,1.71-5.6,2.51-8.41,3.7s-5.39,2.69-7.4,4.9c-1.7,1.88-2.81,4.22-2.81,6.78s.95,5,2.5,6.97c.45,.57,.95,1.11,1.5,1.59,.24,.22,.49,.42,.75,.62,.08,.06,.34,.21,.34,.28,0,.06-.6,.16-.7,.18-1.67,.41-3.31,.89-4.94,1.44-3.11,1.05-6.14,2.35-9.03,3.92-2.73,1.48-5.34,3.21-7.74,5.18-2.1,1.71-4.56,4.13-3.72,7.12s3.83,4.75,6.15,6.31c2.99,2.02,6.02,4,9.23,5.65s6.28,2.87,9.67,3.52c3.02,.58,6.24,.72,9.22-.13,1.33-.38,2.51-1,3.65-1.77,1.27-.86,2.6-1.77,4.2-1.76,1.86,.01,3.49,1.18,4.98,2.18s3.01,2.1,4.45,3.23c2.74,2.16,5.32,4.53,7.7,7.08,1.07,1.15,2.13,2.32,3.41,3.25,1.34,.97,2.89,1.59,4.49,1.98,2.96,.73,6.09,.96,9.13,1.17,2.85,.2,5.72,.26,8.57-.03,4.29-.44,9.39-1.83,11.05-6.31,.78-2.11,.77-4.43,.82-6.64s.03-4.61,1.12-6.57c1.51-2.68,4.64-2.82,7.39-2.91s5.44-.5,7.23-2.77c3.73-4.71,.47-10.96-2.42-15.13-1.02-1.48-2.12-2.9-3.21-4.33s-2.28-2.9-3.15-4.53c-.81-1.5-1.25-3.12-1.03-4.83,.19-1.45,.77-2.82,1.36-4.15,1.07-2.41,2.18-4.87,1.65-7.56s-2.27-4.96-4.21-6.77c-4.99-4.65-11.68-6.63-18.37-7.03-3.69-.22-7.39,0-11.08,.31-.44,.04-.9,.11-1.35,.11-.24,0-.32,.02-.44-.18-.08-.13-.11-.32-.16-.47-.21-.59-.43-1.18-.65-1.76-.47-1.19-.97-2.37-1.54-3.51-2.3-4.63-5.72-8.97-10.74-10.75-5.71-2.03-12.14-.1-15.52,4.98-1.72,2.59-2.62,5.62-3.48,8.58-.02,.08,.1,.11,.12,.03h0Z"/>
      </g>
      <g>
        <path class="cls-23" d="M422.08,84.17c2.29,3.19,4.62,6.98,4.77,11.78,.19,6.11-4.06,11.82-8.01,10.77,.84,6.62-1.12,13.8-4.43,18.56-3.31,4.76-7.81,7.28-12.28,7.98-2.13,.33-4.66-.03-5.7-2.8-.22-.58-.4-1.3-.82-1.52-.4-.2-.83,.13-1.2,.46-1.91,1.68-3.83,3.35-5.74,5.03-1.33,1.17-2.82,2.38-4.29,1.96-1.23-.35-2.16-1.77-3.14-2.93-1.92-2.29-4.27-3.77-6.73-4.22-1.01-.19-2.09-.24-2.89-1.14-.51-.58-.85-1.44-1.1-2.35-1.88-7.08,1.79-14.97,2.16-22.71,.21-4.45-.69-8.75-1.09-13.13-.61-6.64-.05-13.58,1.61-19.93,.55-2.12,1.44-4.43,2.9-4.83,.74-.2,1.48,.15,2.22,.36,3.86,1.12,8.2-2,10.18-7.33,.39,1.62,1.67,2.35,2.82,2.19s2.22-.99,3.29-1.68c2.9-1.85,6.04-2.71,9.13-2.5,2,.14,4.25,1.05,5.02,3.81,.46,1.67,.31,3.83,1.17,5.07,1.15,1.65,3.06,.41,4.65,.68,2.46,.41,3.82,4.29,4.78,7.7,.91,3.21,1.82,6.42,2.73,9.63"/>
        <path class="cls-3" d="M422.01,84.07c2.28,3.18,4.27,6.65,4.69,10.61,.38,3.65-.68,7.76-3.41,10.35-1.19,1.13-2.78,1.91-4.44,1.49-.04,0-.08,.02-.08,.06,.64,5.12-.29,10.47-2.48,15.13-2.05,4.38-5.45,8.14-9.93,10.1-1.84,.81-4.02,1.49-6.05,1.32-.97-.08-1.93-.4-2.66-1.06-.39-.35-.7-.78-.94-1.24-.25-.5-.38-1.05-.62-1.55-.16-.33-.42-.65-.83-.61-.51,.06-.96,.59-1.33,.9-1.14,1-2.27,1.99-3.41,2.99s-2.22,2.07-3.46,2.91c-.57,.39-1.21,.72-1.91,.78s-1.29-.22-1.81-.64c-.94-.76-1.61-1.82-2.41-2.72s-1.76-1.74-2.8-2.4c-.94-.6-1.97-1.06-3.05-1.34s-2.42-.25-3.31-1.11c-.94-.91-1.25-2.4-1.48-3.64-.24-1.3-.3-2.62-.26-3.94,.09-2.72,.63-5.41,1.18-8.07s1.12-5.26,1.38-7.93c.29-2.91,.08-5.81-.26-8.7s-.77-5.77-.89-8.69-.04-5.73,.25-8.58,.78-5.66,1.49-8.43c.3-1.19,.66-2.39,1.27-3.46,.26-.46,.59-.92,1.03-1.24,.58-.42,1.24-.42,1.91-.23,.96,.27,1.82,.55,2.82,.5,.84-.04,1.67-.27,2.44-.61,1.81-.82,3.27-2.29,4.36-3.93,.63-.95,1.13-1.98,1.53-3.05h-.12c.33,1.3,1.41,2.4,2.83,2.25,.88-.1,1.68-.59,2.41-1.06,.9-.58,1.78-1.16,2.75-1.63,1.86-.9,3.89-1.45,5.96-1.51,1.53-.05,3.12,.13,4.41,1.02,1.55,1.07,1.99,2.81,2.22,4.58,.17,1.34,.26,3.35,1.69,4s2.88-.38,4.28,.1,2.32,2.11,2.91,3.43c.89,2,1.43,4.15,2.02,6.26,.71,2.5,1.41,4.99,2.12,7.49,.02,.08,.14,.04,.12-.03-.63-2.22-1.25-4.43-1.88-6.65-.55-1.96-1.05-3.95-1.76-5.86-.52-1.41-1.16-2.93-2.27-3.98-.43-.4-.94-.73-1.51-.85-.67-.15-1.36-.02-2.03,.08-.83,.12-1.75,.21-2.42-.41-.63-.59-.83-1.52-.97-2.33-.28-1.67-.29-3.43-1.34-4.84-1.92-2.58-5.77-2.38-8.55-1.68-1.05,.26-2.08,.64-3.05,1.11-1.05,.51-2,1.17-2.99,1.79-.86,.54-1.89,1.11-2.94,.83s-1.63-1.13-1.88-2.1c-.02-.06-.1-.05-.12,0-.98,2.61-2.66,5.13-5.13,6.54-1.01,.58-2.14,.95-3.31,.96-.56,0-1.12-.07-1.67-.22-.73-.21-1.48-.57-2.25-.36-1.09,.3-1.73,1.5-2.14,2.45-.61,1.41-.96,2.94-1.29,4.43-.74,3.38-1.18,6.82-1.32,10.28s.08,7.07,.52,10.59,.98,7.21,.73,10.84c-.24,3.44-1.06,6.8-1.73,10.17-.62,3.12-1.16,6.34-.82,9.53,.15,1.43,.42,3.03,1.18,4.27,.33,.54,.79,.96,1.38,1.21s1.26,.32,1.9,.44c1.48,.28,2.86,.91,4.09,1.77,1.33,.94,2.37,2.13,3.39,3.38,.78,.96,1.74,2.12,3.09,2.08,1.53-.04,2.82-1.33,3.9-2.27,1.4-1.22,2.79-2.45,4.19-3.67,.32-.28,.64-.56,.96-.84,.37-.32,.97-1.02,1.51-.74,.35,.19,.49,.65,.61,1,.11,.31,.22,.62,.36,.91,1.01,2.1,3.24,2.7,5.4,2.41,2.64-.36,5.19-1.4,7.38-2.89,4.97-3.39,7.93-9,9.14-14.79,.32-1.51,.52-3.05,.59-4.6,.04-.79,.04-1.59,0-2.38-.02-.38-.04-.77-.08-1.15-.02-.18-.03-.36-.06-.54-.03-.25,0-.17,.23-.13,2.12,.36,4.01-1.13,5.22-2.72,1.69-2.22,2.55-5.09,2.53-7.86-.01-3.07-1.02-6.01-2.52-8.66-.68-1.21-1.46-2.35-2.26-3.48-.05-.06-.15,0-.11,.06h0Z"/>
      </g>
      <g>
        <path class="cls-24" d="M104.56,648.08c-.47,4.99-3.56,9.34-7.38,12s-8.32,3.87-12.78,4.66c-1.71,.3-3.49,.55-5.16,.01-3.03-.98-5-4.41-5.52-7.87-.52-3.46,.15-6.99,.8-10.42-5.38,5.55-12.84,11.5-19.38,7.78-2.43-1.38-4.18-3.92-5.52-6.57-4.44-8.73-5.34-19.59-2.41-29.08,.77-2.47,2.29-5.24,4.65-5.18-2.54-5.32-3.93-11.3-4.03-17.32-.06-3.48,.49-7.36,2.93-9.55,1.24-1.12,2.82-1.64,4.39-1.99,7.7-1.73,16.03,.4,22.28,5.69,7.87-7.39,19.37-10.73,28.8-6.12,9.43,4.61,15.03,18.35,10.14,28.44,9.54,1.3,15.81,14.21,12.4,24.2-3.41,9.99-14.71,15.19-23.84,11.86"/>
        <path class="cls-3" d="M104.51,648.12c-.33,3.32-1.81,6.42-3.99,8.93s-5.19,4.42-8.37,5.64c-1.67,.64-3.39,1.13-5.13,1.52s-3.66,.83-5.5,.85c-1.74,.01-3.33-.55-4.61-1.74-1.16-1.08-1.98-2.51-2.51-4-1.47-4.12-.6-8.63,.2-12.8,.01-.06-.06-.11-.1-.06-3.11,3.2-6.62,6.44-10.84,8.08-1.9,.74-3.98,1.08-5.99,.65-2.14-.46-3.94-1.76-5.34-3.4s-2.54-3.76-3.45-5.82-1.65-4.27-2.18-6.49c-1.09-4.55-1.37-9.29-.84-13.93,.29-2.55,.79-5.14,1.66-7.56,.69-1.91,2.01-4.48,4.36-4.47,.05,0,.07-.05,.05-.09-1.73-3.64-2.92-7.53-3.53-11.52-.31-1.99-.48-4-.5-6.02-.01-1.7,.11-3.41,.54-5.06s1.16-3.14,2.42-4.25c1.44-1.26,3.36-1.77,5.2-2.11,3.47-.64,7.08-.51,10.51,.33,3.98,.97,7.69,2.89,10.82,5.53,.03,.02,.06,.02,.09,0,3.36-3.14,7.38-5.59,11.76-6.98s8.76-1.66,13.06-.56c3.93,1.01,7.37,3.18,10.02,6.26s4.39,6.67,5.25,10.52,.75,7.89-.63,11.57c-.18,.49-.39,.97-.62,1.44-.02,.03,0,.09,.04,.09,3.69,.52,6.84,2.77,9.07,5.69,2.39,3.13,3.82,6.99,4.15,10.91s-.59,8.09-2.79,11.52-5.4,5.99-9.1,7.47-7.63,1.8-11.39,.78c-.45-.12-.9-.27-1.34-.43-.08-.03-.11,.09-.03,.12,5.04,1.82,10.72,1.07,15.32-1.58s8.36-7.57,9.28-13.07-.54-11.02-3.68-15.38c-1.46-2.03-3.35-3.8-5.59-4.94-1.09-.55-2.27-.95-3.47-1.16-.13-.02-.28,0-.28-.12s.15-.33,.2-.45c.13-.3,.26-.61,.37-.92,.25-.68,.46-1.37,.63-2.07,1.3-5.41,.15-11.26-2.51-16.08-1.32-2.38-3.04-4.57-5.12-6.33s-4.75-3.16-7.51-3.91c-6.09-1.64-12.6-.4-18.12,2.49-1.47,.77-2.87,1.65-4.2,2.64-.62,.46-1.23,.95-1.82,1.45-.28,.24-.59,.63-.91,.81-.24,.13-.78-.47-1-.64-2.66-2.05-5.7-3.59-8.92-4.52s-6.58-1.23-9.9-.85c-3.1,.35-6.49,1.13-8.25,3.96s-1.79,6.18-1.65,9.27c.17,3.77,.84,7.51,2,11.1,.56,1.73,1.23,3.42,2.01,5.06l.05-.09c-1.9-.01-3.16,1.67-3.92,3.22-.99,2.02-1.49,4.31-1.88,6.51-.84,4.73-.81,9.62,.06,14.35,.44,2.4,1.1,4.75,1.99,7.02,.84,2.15,1.85,4.28,3.18,6.17,1.24,1.77,2.82,3.33,4.84,4.17,1.86,.78,3.91,.83,5.86,.35,2.13-.52,4.1-1.59,5.9-2.82,1.96-1.35,3.75-2.92,5.45-4.58,.41-.41,.82-.82,1.23-1.23l-.1-.06c-.74,3.88-1.56,8.01-.5,11.91,.77,2.85,2.64,5.83,5.69,6.57,1.86,.45,3.82,.05,5.66-.3s3.72-.8,5.53-1.4c3.34-1.11,6.51-2.8,8.99-5.33,2.61-2.66,4.42-6.1,4.79-9.84,0-.08-.12-.08-.12,0h0Z"/>
      </g>
      <g>
        <path class="cls-24" d="M617.4,11.2c4.36-4.36,11.89-2.42,13.08-2.11,1.51,.39,8.59,1.99,11.04,8.06,3.19,7.9-2.26,16.06-7.34,21.94,4.87,5.28,9.9,10.83,12.27,17.94s1.12,16.22-4.5,19.61c-4.3,2.59-10.14,1.4-13.89,4.9-1.7,1.58-2.71,3.92-3.63,6.22-1.96,4.89-3.81,10.05-7.28,13.61s-9.13,5.01-13.1,1.69c-1.96-1.64-3.28-4.22-5.38-5.61-6.02-3.98-12.11,4.15-18.75,5.28-8.26,1.41-15.09-8.04-19.87-16.34-1.4-2.43-2.85-5.03-2.97-7.88-.08-2.08,.56-4.04,1.11-5.99,1.47-5.28,2.23-10.87,2.25-16.5,0-1.32-.05-2.72-.67-3.88-1.17-2.18-3.72-2.54-5.82-3.35-4.83-1.84-8.37-7.08-9.99-12.63-1.62-5.55-1.63-11.43-1.51-17.17,.06-3.03,.27-6.35,2.13-8.38,2.12-2.3,5.54-2.02,8.52-1.35,8.79,1.98,17.31,6.15,24.79,12.14,.22-5.63,4.43-10.08,9.2-11.22,4.81-1.15,9.88,.9,14.39,3.01,6.56,3.06,8.96,6.27,11.63,5.05,2.42-1.11,1.44-4.2,4.29-7.05Z"/>
        <path class="cls-3" d="M617.48,11.21c3.88-3.82,10.05-3.1,14.82-1.59,2.76,.87,5.45,2.3,7.36,4.51,2.83,3.28,3.32,7.88,2.23,11.96-1.31,4.89-4.45,9.15-7.7,12.93-.02,.03-.02,.06,0,.09,6.15,6.67,12.78,14.16,13.35,23.67,.23,3.8-.43,7.94-2.7,11.09-1.13,1.58-2.67,2.77-4.48,3.47-1.94,.76-4.02,1.02-6.05,1.42s-3.91,.91-5.53,2.11c-1.75,1.29-2.82,3.24-3.68,5.19-1.92,4.36-3.3,8.99-6.06,12.93-2.47,3.53-6.49,6.44-11.02,5.75-2.27-.35-4.02-1.67-5.48-3.38-1.35-1.58-2.56-3.4-4.46-4.38-3.18-1.65-6.58-.02-9.41,1.59-3.27,1.86-6.66,4.3-10.6,4.21s-7.51-2.71-10.19-5.53c-3.05-3.2-5.46-6.97-7.67-10.78-1.25-2.16-2.54-4.42-2.93-6.92-.42-2.71,.55-5.29,1.23-7.88,1.34-5.11,2.02-10.4,2.02-15.68,0-2.03-.25-4.12-2-5.41-1.53-1.12-3.49-1.37-5.19-2.15-4-1.83-6.74-5.74-8.38-9.7-1.98-4.81-2.42-10.09-2.46-15.24-.02-2.48-.06-5.01,.2-7.48,.23-2.22,.82-4.69,2.74-6.07,1.77-1.27,4.1-1.25,6.16-.93,2.3,.36,4.58,1.02,6.79,1.75,4.71,1.55,9.21,3.7,13.4,6.33,2.11,1.33,4.14,2.78,6.09,4.33,.04,.03,.1,.01,.11-.04,.16-3.59,1.98-6.94,4.85-9.1,3.21-2.42,7.19-2.81,11.03-1.91,2.16,.51,4.23,1.33,6.25,2.23,1.91,.86,3.78,1.8,5.58,2.88,1.28,.76,2.51,1.61,3.83,2.31,.81,.43,1.71,.83,2.65,.76,1.24-.09,2.15-.94,2.62-2.05,.32-.75,.52-1.54,.81-2.3,.43-1.12,1.05-2.12,1.89-2.98,.06-.06-.03-.15-.09-.09-1.26,1.3-1.86,2.84-2.43,4.52-.45,1.34-1.18,2.6-2.72,2.77-1.06,.11-2.09-.41-2.98-.91-1.38-.77-2.69-1.66-4.05-2.46-1.84-1.08-3.76-2.01-5.72-2.86s-4.01-1.62-6.13-2.06c-3.61-.74-7.31-.31-10.35,1.87s-4.97,5.64-5.14,9.38l.11-.04c-4.86-3.88-10.25-7.1-16.03-9.41-2.85-1.14-5.79-2.07-8.78-2.74-2.34-.52-5.08-.9-7.28,.34s-3.01,3.91-3.28,6.33c-.16,1.49-.18,3-.2,4.49-.03,1.71-.03,3.41,.02,5.12,.19,6.11,1.21,12.42,4.71,17.58,1.42,2.09,3.25,3.98,5.5,5.18,2.13,1.14,5.01,1.27,6.64,3.21,1.06,1.27,1.15,2.98,1.15,4.56,0,1.72-.08,3.44-.22,5.15-.29,3.44-.86,6.87-1.72,10.21-.41,1.6-.96,3.18-1.24,4.82-.26,1.49-.23,2.99,.16,4.46,.74,2.86,2.43,5.47,3.95,7.97,2.74,4.49,5.96,9.18,10.42,12.13,1.88,1.24,4.04,2.11,6.31,2.17s4.51-.81,6.54-1.88c2.17-1.14,4.21-2.54,6.44-3.57,2.1-.96,4.47-1.52,6.66-.52,2.62,1.2,3.93,3.93,5.96,5.81,1.84,1.71,4.3,2.45,6.78,2.13,5.64-.72,9.06-5.69,11.28-10.45,1.3-2.77,2.28-5.68,3.53-8.47,.63-1.4,1.36-2.79,2.4-3.93,.96-1.04,2.17-1.79,3.49-2.29,2.43-.92,5.07-1.08,7.57-1.74,2.27-.6,4.31-1.69,5.8-3.54,2.97-3.67,3.56-8.92,2.94-13.45-.77-5.65-3.77-10.73-7.25-15.15-.93-1.18-1.9-2.33-2.9-3.46-.5-.56-1-1.12-1.5-1.67-.25-.28-.5-.55-.75-.82-.17-.19-.69-.59-.7-.84s.48-.65,.64-.84c.23-.28,.47-.57,.7-.85,.44-.54,.86-1.09,1.28-1.65,.91-1.22,1.76-2.49,2.52-3.8,2.78-4.81,4.4-10.88,1.52-16.04-1.92-3.42-5.53-5.45-9.19-6.52-2.77-.81-5.69-1.3-8.58-.92-2.19,.29-4.28,1.13-5.87,2.7-.06,.06,.03,.14,.09,.09Z"/>
      </g>
      <g>
        <path class="cls-24" d="M90.15,411.35c-4.08-.9-3.75-4.51-8.35-6.48-4.77-2.05-7.2,.95-10.85-1.46-2.62-1.73-4.9-5.38-4.19-8.48,.47-2.05,2.07-3.98,1.73-6-.43-2.57-3.54-2.39-5.74-5.13-2.37-2.96-1.95-6.91-1.35-11.99,.77-6.48,2.24-6.93,3.34-12.92,1.73-9.42-1.13-12.56,1.31-15.89,1.77-2.43,6.09-4.59,17.61-2.64,3.18-7.16,10.43-12.17,17.92-13.56,7.49-1.38,15.09,.52,21.47,4.15,3.05,1.73,6.17,4.51,5.76,8.17-.09,.77-.32,1.64,.1,2.25,.39,.58,1.19,.67,1.9,.71,3.63,.23,7.26,.46,10.89,.69,1.51,.1,4.22,.49,6.97,2.25,.92,.59,5.14,3.3,5.33,7.2,.17,3.47-3.01,4.4-2.66,7.11,.56,4.4,9.42,5.32,9.33,8.22-.08,2.62-7.34,2.41-9.33,7.11-1.47,3.46,1.5,5.2,.67,10.44-.76,4.76-4,7.96-7.11,11.03-2.28,2.25-5.1,5.03-9.55,6.29-4.73,1.34-5.83-.51-8.22,.89-4.77,2.79-1.04,11.52-6.68,16.23-.39,.33-3.63,2.95-6.99,1.85-2.5-.82-4.3-3.45-4.76-6.75-3.89-3.61-7.28-4.65-9.99-4.66-3.92-.02-5.23,2.09-8.53,1.37Z"/>
        <path class="cls-3" d="M90.05,411.31c-1.72-.39-2.85-1.44-3.92-2.78s-2.16-2.54-3.68-3.35c-1.73-.91-3.6-1.24-5.54-1.06-1.67,.15-3.33,.5-4.94-.16-1.95-.79-3.55-2.58-4.49-4.42-.5-.97-.84-2.03-.89-3.12-.05-1.16,.31-2.21,.76-3.25,.69-1.58,1.76-3.57,.72-5.24-.83-1.33-2.61-1.83-3.83-2.7-1.67-1.19-2.72-2.93-3.11-4.93s-.23-4.22-.01-6.3c.23-2.23,.48-4.47,1.08-6.63,.4-1.45,.98-2.84,1.45-4.26,1.27-3.85,1.79-7.99,1.61-12.03-.06-1.35-.23-2.69-.27-4.03-.04-1.06,.03-2.14,.5-3.12,.82-1.73,2.5-2.84,4.27-3.43,3.18-1.07,6.74-.92,10.02-.57,1.26,.13,2.52,.31,3.77,.52,.03,0,.06,0,.07-.03,3.5-7.81,11.59-12.96,19.97-13.83,4.81-.5,9.69,.3,14.19,2.02,2.19,.83,4.37,1.86,6.33,3.16,1.75,1.17,3.46,2.71,4.21,4.73,.38,1.02,.41,2.04,.27,3.11-.11,.79-.2,1.74,.59,2.22s2.01,.39,2.92,.44c1.39,.09,2.77,.18,4.16,.26s2.71,.17,4.06,.26c.98,.06,1.96,.11,2.92,.27,2,.35,3.89,1.11,5.58,2.23,2.6,1.72,5.52,4.59,4.96,8.02-.26,1.56-1.37,2.6-2.13,3.92-.61,1.07-.67,2.3-.07,3.39s1.63,1.84,2.65,2.46c1.17,.71,2.43,1.27,3.64,1.91,.89,.47,2.1,1.04,2.52,2.02,.44,1.03-.47,1.77-1.29,2.21-2.42,1.3-5.3,1.83-7.1,4.09-.87,1.09-1.35,2.47-1.21,3.87s.74,2.72,1.01,4.11c.85,4.44-1.24,8.58-4.12,11.83-1.29,1.45-2.68,2.81-4.08,4.15s-2.94,2.61-4.65,3.59c-1.96,1.12-4.21,1.92-6.48,2.06-1.3,.08-2.61-.29-3.91-.14-2.9,.32-3.94,3.31-4.32,5.78-.5,3.26-.51,6.81-2.57,9.57s-6.05,4.59-9.19,2.87c-1.78-.97-2.92-2.82-3.48-4.73-.14-.46-.17-.97-.31-1.43-.15-.48-.78-.85-1.18-1.18-.86-.7-1.76-1.35-2.72-1.9-3.04-1.74-6.45-2.29-9.8-1.15-.73,.25-1.44,.54-2.19,.72-.9,.21-1.8,.21-2.7,.02-.08-.02-.11,.1-.03,.12,1.25,.26,2.43,.13,3.63-.27,1.33-.44,2.6-.94,4.01-1.06,2.81-.23,5.54,.74,7.88,2.26,.82,.53,1.59,1.13,2.33,1.77,.16,.14,.37,.28,.5,.45,.18,.22,.18,.46,.23,.72,.08,.4,.18,.79,.3,1.18,.42,1.34,1.12,2.61,2.13,3.59,.94,.91,2.14,1.51,3.44,1.64,1.38,.14,2.77-.26,4-.88,1.97-1,3.51-2.59,4.37-4.63,.99-2.35,1.09-4.93,1.45-7.42,.31-2.18,.93-4.55,3.1-5.58,.89-.42,1.8-.37,2.75-.27,1.2,.12,2.38,.14,3.57-.07,3.19-.55,6.07-2.15,8.51-4.24,1.05-.9,2.03-1.87,3.01-2.84,1.14-1.13,2.27-2.27,3.28-3.51,1.97-2.42,3.41-5.28,3.56-8.45,.06-1.34-.15-2.64-.51-3.93-.3-1.04-.68-2.08-.7-3.17-.05-2.57,1.91-4.43,4.03-5.53,.98-.51,2.02-.9,3.04-1.33,.73-.31,1.52-.62,2.11-1.17,1.09-1.02,.35-2.23-.65-2.95-1.64-1.19-3.62-1.84-5.33-2.92s-3.53-2.95-2.52-5.16c.45-.98,1.23-1.76,1.75-2.7,.6-1.09,.78-2.31,.55-3.53-.45-2.37-2.25-4.27-4.12-5.66-2.1-1.57-4.54-2.61-7.15-2.95-1.76-.23-3.56-.26-5.34-.37-2.11-.13-4.22-.27-6.33-.4-.96-.06-2.13-.18-2.26-1.36-.09-.83,.2-1.67,.15-2.51-.07-1.37-.66-2.65-1.49-3.73-1.98-2.56-5.12-4.14-8.03-5.39-3.28-1.41-6.78-2.36-10.35-2.66-6.59-.56-13.21,1.23-18.47,5.28-2.41,1.85-4.49,4.15-6,6.79-.2,.35-.39,.7-.56,1.05-.09,.17-.15,.37-.26,.54-.16,.26-.33,.2-.63,.15-.9-.15-1.81-.27-2.72-.38-1.58-.18-3.17-.29-4.76-.29-3.25,.02-7.27,.47-9.46,3.21-.99,1.24-1.25,2.68-1.2,4.23,.08,2.3,.38,4.56,.29,6.87-.12,3.27-.7,6.55-1.76,9.64-.37,1.07-.79,2.13-1.12,3.21-.44,1.42-.73,2.88-.93,4.36-.24,1.74-.44,3.51-.53,5.26-.07,1.44-.05,2.91,.28,4.32,.3,1.28,.87,2.48,1.74,3.47,.97,1.1,2.23,1.76,3.49,2.47s2.17,1.64,2.06,3.19c-.13,1.73-1.23,3.21-1.69,4.85-.81,2.88,.83,5.94,2.89,7.87,.99,.93,2.18,1.69,3.54,1.91,1.17,.19,2.34-.02,3.51-.14,1.5-.15,2.98-.08,4.41,.42,1.53,.54,2.87,1.43,3.95,2.62,.73,.81,1.34,1.73,2.11,2.5,.82,.82,1.81,1.35,2.94,1.61,.08,.02,.11-.1,.03-.12Z"/>
      </g>
    </g>
  </g>
</svg>